<svg width="586" height="372" viewBox="0 0 586 372" fill="none" xmlns="http://www.w3.org/2000/svg">
<path fill-rule="evenodd" clip-rule="evenodd" d="M420.084 352.124C414.285 352.338 408.922 351.047 403.483 350.21C394.454 348.82 385.534 346.972 376.684 344.741C370.702 343.234 364.663 342.144 358.475 341.918C355.311 341.803 352.158 341.729 348.996 341.929C348.015 341.991 347.183 342.404 346.306 342.728C343.831 343.641 341.355 344.549 338.969 345.684C336.193 347.004 333.855 348.89 331.939 351.268C327.116 357.255 321.72 362.596 315.199 366.765C312.815 368.288 310.334 369.387 307.57 369.96C304.804 370.533 302.06 371.217 299.32 371.906C296.987 372.492 294.671 372.505 292.34 371.94C288.084 370.911 283.824 369.891 279.569 368.856C278.086 368.495 276.74 367.824 275.513 366.921C271.259 363.793 266.835 360.896 262.789 357.486C261.27 356.206 259.918 354.76 258.569 353.309C255.933 350.472 252.362 349.12 249.073 347.299C245.588 345.371 241.743 345.519 237.994 345.074C236.595 344.907 235.181 344.856 233.771 344.782C226.409 344.392 219.247 345.501 212.139 347.394C205.725 349.102 199.238 350.545 192.754 351.975C190.38 352.498 187.95 352.783 185.502 352.959C179.506 353.393 173.505 353.663 167.502 353.922C164.053 354.07 160.661 353.509 157.261 353.08C149.725 352.131 142.422 350.062 135.042 348.375C125.48 346.188 116.681 342.334 108.797 336.396C102.624 331.746 96.11 327.522 90.708 321.925C87.289 318.382 84.583 314.289 82.112 310.046C81.512 309.015 81.362 307.823 81.095 306.678C80.259 303.101 79.432 299.521 78.567 295.951C78.316 294.917 78.26 293.911 78.536 292.883C78.83 291.786 78.611 291.029 77.538 290.299C69.812 285.043 62.619 279.107 55.528 273.03C52.204 270.182 48.586 267.679 45.15 264.959C38.871 259.986 32.618 254.98 26.371 249.966C21.552 246.099 16.772 242.157 12.737 237.462C7.59403 231.476 3.30503 225.008 2.18103 216.895C1.81403 214.248 1.08703 211.637 0.367029 209.053C-0.183971 207.074 -0.110971 205.157 0.347029 203.208C1.33903 198.99 2.32703 194.771 3.34103 190.559C3.66203 189.224 4.18703 187.976 4.98003 186.83C6.99203 183.924 8.88403 180.91 11.222 178.265C14.97 174.026 19.092 170.152 23.648 166.769C27.736 163.733 31.956 160.862 35.913 157.665C42.155 152.622 48.517 147.728 55.226 143.357C62.964 138.315 70.497 132.98 78.202 127.896C80.243 126.549 82.349 125.299 84.452 124.048C86.939 122.569 89.818 122.351 92.546 121.675C93.733 121.381 94.313 120.935 94.586 119.671C95.529 115.299 96.531 110.935 97.715 106.624C98.395 104.146 99.385 101.743 100.38 99.366C103.828 91.125 107.567 83.012 112.312 75.428C119.116 64.557 126.411 54.041 134.672 44.187C139.328 38.633 144.587 33.907 150.536 29.831C158.386 24.454 166.119 18.894 174.524 14.391C179.557 11.694 185.022 10.064 190.454 8.40201C198.335 5.99101 206.377 4.20001 214.41 2.38701C219.654 1.20301 224.99 0.611004 230.361 0.470004C235.262 0.341004 240.17 0.200008 245.068 0.337008C250.388 0.487008 255.725 0.438007 261.026 1.00501C266.979 1.64301 272.796 3.012 278.609 4.407C287.592 6.563 296.357 9.39801 304.658 13.445C315.665 18.811 325.806 25.564 335.154 33.482C337.274 35.278 339.67 36.738 341.597 38.763C345.619 42.986 349.674 47.179 353.632 51.46C355.484 53.462 357.167 55.623 358.872 57.755C359.388 58.399 359.802 58.534 360.643 58.304C367.683 56.38 374.783 54.686 381.928 53.208C383.896 52.801 385.932 52.671 387.945 52.556C390.056 52.435 392.17 52.508 394.288 52.281C396.825 52.01 399.351 52.594 401.864 52.874C408.426 53.606 414.766 55.421 421.138 57.077C432.743 60.094 442.526 66.525 451.8 73.74C459.52 79.744 465.724 87.226 471.102 95.391C473.328 98.768 476.077 101.817 477.623 105.615C479.572 110.399 481.712 115.124 482.671 120.248C482.822 121.06 483.012 121.312 483.935 121.131C486.213 120.683 488.511 120.823 490.778 121.359C494.445 122.226 498.114 123.082 501.779 123.958C503.925 124.472 505.758 125.618 507.524 126.88C512.586 130.499 517.579 134.214 522.818 137.581C529.085 141.608 535.154 145.926 541.179 150.298C547.356 154.78 553.447 159.382 559.522 164.003C564.245 167.594 568.971 171.287 572.881 175.71C577.745 181.21 582.018 187.227 583.377 194.781C583.91 197.742 584.661 200.676 585.493 203.569C586.114 205.727 585.733 207.779 585.264 209.836C584.165 214.648 583.364 219.538 581.639 224.192C581.244 225.256 580.658 226.223 579.997 227.136C577.841 230.115 575.845 233.239 573.441 236.007C569.775 240.23 565.906 244.269 561.45 247.729C556.876 251.283 552.514 255.103 548.177 258.951C543.064 263.486 537.594 267.58 532.044 271.578C526.463 275.599 520.962 279.747 515.652 284.115C513.284 286.062 510.74 287.748 508.388 289.692C507.371 290.533 505.959 290.464 505.006 291.368C504.744 291.616 504.336 291.722 504.354 292.209C504.485 295.903 503.103 299.322 502.402 302.865C501.715 306.335 500.709 309.722 499.673 313.097C499.345 314.166 498.819 315.196 498.258 316.17C495.855 320.343 493.04 324.242 490.198 328.122C489.374 329.246 488.234 330.03 487.132 330.823C482.928 333.847 478.925 337.195 474.278 339.539C470.354 341.518 466.45 343.481 462.099 344.594C456.715 345.972 451.324 347.311 445.907 348.539C441.553 349.527 437.188 350.555 432.774 351.175C428.501 351.776 424.19 352.358 420.084 352.124Z" fill="#3B5379"/>
<path fill-rule="evenodd" clip-rule="evenodd" d="M145.471 137.488C144.055 138.805 142.2 139.047 140.443 139.483C136.616 140.435 132.847 140.262 129.415 138.188C122.62 134.082 120.182 128.129 122.31 120.516C125.02 110.819 129.331 101.761 134.263 93.017C139.444 83.829 145.115 74.961 151.93 66.859C154.172 64.194 156.39 61.511 158.683 58.889C161.246 55.958 164.364 53.689 167.575 51.539C172.28 48.39 176.955 45.201 181.753 42.187C188.055 38.229 194.929 35.722 201.978 33.565C209.351 31.31 216.797 29.381 224.482 28.554C226.446 28.343 228.433 28.298 230.411 28.264C235.362 28.181 240.319 27.998 245.265 28.142C249.034 28.251 252.814 28.202 256.571 28.459C263.613 28.94 270.527 30.165 277.244 32.435C284.421 34.86 291.415 37.704 298.015 41.433C303.799 44.703 309.543 48.086 314.561 52.477C317.05 54.655 319.858 56.442 322.15 58.844C326.065 62.948 330.104 66.942 333.872 71.177C339.139 77.097 343.786 83.472 347.154 90.711C348.822 94.298 349.008 94.386 352.48 92.612C354.936 91.356 357.299 89.897 359.621 88.4C362.944 86.257 366.658 85.098 370.374 83.959C374.131 82.807 377.907 81.687 381.793 81.047C383.919 80.697 386.073 80.467 388.224 80.328C390.24 80.197 392.259 80.23 394.283 80.057C396.956 79.828 399.604 80.532 402.272 80.714C407.841 81.095 412.878 83.407 418.046 85.17C421.916 86.49 425.222 89.007 428.677 91.16C434.063 94.516 438.417 99.095 442.729 103.644C445.215 106.268 447.155 109.42 449.279 112.379C453.234 117.887 455.698 124.151 457.101 130.654C458.155 135.536 458.045 140.682 456.636 145.665C455.816 148.568 454.243 150.984 452.046 152.896C450.056 154.629 447.474 155.29 444.853 155.293C435.842 155.305 429.354 150.517 425.591 142.003C423.522 137.323 421.769 132.466 418.676 128.308C415.358 123.848 411.492 119.977 406.369 117.591C404.457 116.7 402.348 116.498 400.306 116.045C397.18 115.352 394.02 115.05 390.852 114.857C386.323 114.583 382.128 116.017 377.9 117.475C371.72 119.605 366.96 123.89 361.727 127.483C356.513 131.065 351.088 134.365 344.582 134.786C340.143 135.073 335.86 134.189 332.373 131.066C329.852 128.809 327.097 126.791 325.101 123.994C322.592 120.478 320.719 116.638 318.983 112.686C316.941 108.039 313.958 103.901 311.299 99.588C308.813 95.553 305.85 91.897 302.595 88.502C299.434 85.204 295.525 82.776 291.93 79.98C284.436 74.148 275.526 71.413 266.873 68.117C263.594 66.868 260.028 66.66 256.568 66.183C250.813 65.39 245.061 64.441 239.207 64.704C234.144 64.932 229.106 65.261 224.1 66.193C221.996 66.585 219.878 66.944 217.779 67.377C214.435 68.066 211.288 69.359 208.311 70.974C205.743 72.367 203.046 73.489 200.494 74.893C193.619 78.674 187.229 83.029 181.837 88.887C175.945 95.288 170.888 102.214 166.327 109.603C163.085 114.856 160.546 120.472 157.327 125.723C155.074 129.398 152.651 132.894 149.139 135.496C148.458 136.023 147.895 136.717 146.827 136.449C146.097 136.267 145.954 137.171 145.471 137.488Z" fill="#FEFEFE"/>
<path fill-rule="evenodd" clip-rule="evenodd" d="M278.591 292.019C280.996 293.151 283.07 294.814 285.239 296.303C287.839 298.089 290.389 299.965 292.764 302.066C294.586 303.678 296.096 303.753 298.233 302.599C301.6 300.782 304.328 298.076 307.486 295.975C312.166 292.865 317.008 290.07 322.122 287.682C329.741 284.125 337.746 282.367 346.029 281.319C351.402 280.638 356.738 280.84 362.069 281.157C367.111 281.459 372.086 282.474 377.054 283.442C380.592 284.131 384.201 284.45 387.752 285.086C393.592 286.13 399.412 287.287 405.236 288.416C408.757 289.1 412.245 290.061 415.796 290.455C419.162 290.829 422.522 291.387 425.997 290.998C428.312 290.74 430.719 290.893 433.055 290.554C435.075 290.261 437.059 289.733 439.066 289.343C445.232 288.148 450.597 285.025 456.124 282.286C457.551 281.579 458.897 280.75 460.449 280.249C466.957 278.148 475.496 283.008 476.449 291.061C476.75 293.6 476.114 295.946 475.488 298.388C474.564 301.992 472.584 304.97 470.728 308.058C470.287 308.792 469.713 309.38 469.038 309.924C466.723 311.788 464.256 313.412 461.632 314.801C455.482 318.056 448.974 320.221 442.136 321.558C437.209 322.52 432.306 323.598 427.302 324.024C422.23 324.458 417.157 324.6 412.071 323.879C407.887 323.286 403.805 322.109 399.623 321.659C392.123 320.851 384.994 318.488 377.681 316.921C372.63 315.839 367.552 314.739 362.333 314.377C358.356 314.101 354.38 313.926 350.414 313.969C345.417 314.024 340.597 315.275 335.925 317.057C331.209 318.857 326.379 320.416 322.157 323.282C318.499 325.766 315.038 328.509 312.074 331.82C309.496 334.702 307.149 337.796 304.322 340.447C302.172 342.463 299.835 344.272 296.76 344.511C293.465 344.768 290.479 343.845 287.751 341.907C284.012 339.25 280.683 336.159 277.398 332.97C272.535 328.251 266.785 324.813 260.599 322.062C258.032 320.92 255.559 319.582 252.78 318.977C249.926 318.357 247.015 318.207 244.126 317.888C239.309 317.355 234.487 316.971 229.628 316.961C225.04 316.952 220.545 317.532 216.103 318.562C210.286 319.91 204.496 321.374 198.686 322.754C193.809 323.912 188.942 325.039 183.883 325.275C177.263 325.585 170.647 326.361 164.023 326.018C159.449 325.781 154.874 325.168 150.391 324.099C145.669 322.971 140.893 321.995 136.395 320.124C126.133 315.854 117.433 309.289 109.607 301.508C107.931 299.842 106.771 297.782 106.235 295.424C105.847 293.719 106.307 292.016 106.535 290.392C106.877 287.962 107.406 285.496 108.518 283.229C111.871 276.395 119.839 273.735 126.557 277.294C130.291 279.273 133.891 281.517 137.679 283.383C144.263 286.627 150.809 290.075 157.955 291.898C161.793 292.876 165.815 292.889 169.846 292.502C178.03 291.716 185.736 288.742 193.833 287.563C197.435 287.039 200.902 285.717 204.545 285.237C209.611 284.567 214.664 283.791 219.725 283.079C227.068 282.047 234.454 281.813 241.845 282.182C245.285 282.354 248.722 282.661 252.16 283.081C258.513 283.855 264.129 286.785 270.155 288.459C272.819 289.198 275.239 290.502 277.838 291.368C278.065 291.443 278.278 291.532 278.354 291.791C278.21 292.248 277.846 292.516 277.49 292.79C277.886 292.572 278.139 292.154 278.591 292.019Z" fill="#FEFEFE"/>
<path fill-rule="evenodd" clip-rule="evenodd" d="M66.458 169.184C68.117 167.485 70.295 166.544 72.256 165.304C77.364 162.074 82.183 158.426 87.24 155.126C90.49 153.005 93.705 150.815 97.066 148.882C102.087 145.993 109.24 147.605 112.941 152.356C116.504 156.929 116.891 161.814 114.614 167.17C113.054 170.839 110.217 173.319 107.623 176.088C103.379 180.619 98.404 184.231 93.415 187.874C87.077 192.503 80.717 197.12 74.793 202.298C73.14 203.743 71.296 204.974 69.517 206.271C68.079 207.32 68.048 208.591 69.439 209.692C73.014 212.524 76.358 215.625 79.779 218.635C82.636 221.15 85.598 223.544 88.5 226.009C93.335 230.116 98.448 233.889 102.976 238.373C105.432 240.806 107.879 243.216 109.29 246.39C112.236 253.016 109.862 262.51 103.636 265.872C98.641 268.569 93.168 268.128 88.744 264.586C81.072 258.444 73.58 252.086 65.809 246.058C59.054 240.818 52.288 235.57 45.731 230.07C41.369 226.41 37.017 222.753 33.071 218.617C29.788 215.176 28.238 210.98 27.803 206.484C27.493 203.286 28.692 200.165 31.003 197.726C34.691 193.835 38.46 190.016 42.82 186.859C48.625 182.657 54.334 178.332 59.99 173.93C61.713 172.59 63.322 171.065 65.273 170.023C65.745 169.852 66.065 169.467 66.458 169.184Z" fill="#FEFEFE"/>
<path fill-rule="evenodd" clip-rule="evenodd" d="M506.497 217.011C509.831 213.899 513.164 210.785 516.718 207.918C517.911 206.955 517.889 205.867 516.628 204.927C510.789 200.569 505.208 195.879 499.319 191.584C492.754 186.795 486.061 182.168 479.881 176.876C475.857 173.43 472.954 169.267 472.881 163.747C472.771 155.48 478.709 148.778 486.808 148.719C490.023 148.696 492.572 150.032 494.952 151.83C499.441 155.22 503.999 158.509 508.738 161.537C515.188 165.659 521.304 170.24 527.466 174.772C533.277 179.046 539.103 183.296 544.688 187.859C548.212 190.738 551.821 193.573 554.538 197.277C556.356 199.757 557.574 202.682 557.947 205.661C558.225 207.89 557.467 210.268 556.388 212.43C555.069 215.074 552.904 217.002 551.071 219.213C548.598 222.197 545.736 224.783 542.767 227.255C539.082 230.323 535.27 233.25 531.723 236.469C525.409 242.198 518.639 247.322 511.728 252.286C507.651 255.214 503.748 258.38 499.734 261.395C497.485 263.084 495.094 264.554 492.871 266.257C487.468 270.396 478.804 268.841 474.733 262.747C473.188 260.434 472.029 257.844 472.398 255.221C472.873 251.856 473.236 248.295 475.413 245.397C476.315 244.195 477.282 243.038 478.267 241.901C483.036 236.391 488.428 231.551 494.207 227.13C494.315 227.047 494.458 227.009 494.586 226.949C495.159 226.683 495.542 226.179 496.024 225.798C499.02 223.248 502.017 220.697 505.014 218.147C505.651 217.956 506.005 217.393 506.497 217.011Z" fill="#FEFEFE"/>
<path fill-rule="evenodd" clip-rule="evenodd" d="M186.81 222.968C186.81 216.929 186.97 210.884 186.759 204.852C186.594 200.137 186.728 195.418 186.488 190.715C186.19 184.886 185.748 179.056 186.028 173.228C186.178 170.108 186.27 166.962 187.052 163.868C188.625 157.643 196.466 155.05 201.364 157.771C204.478 159.501 206.417 162.331 207.052 166.077C208.107 172.3 207.556 178.558 207.885 184.789C208.111 189.058 207.881 193.34 208.392 197.595C208.538 198.813 209.426 198.955 210.31 198.972C212.196 199.007 214.083 198.94 215.97 198.904C219.551 198.836 223.133 198.763 226.713 198.686C228.847 198.64 229.062 198.388 229.018 196.25C228.923 191.631 228.874 187.004 228.668 182.396C228.482 178.246 228.479 174.104 228.464 169.96C228.457 167.846 228.499 165.693 228.883 163.625C229.574 159.902 233.34 156.712 237.229 156.238C243.688 155.45 248.312 158.879 249.887 164.973C250.131 165.916 250.281 166.913 250.276 167.885C250.248 173.581 250.527 179.27 250.624 184.964C250.769 193.536 250.601 202.116 250.924 210.678C251.152 216.707 250.807 222.742 251.221 228.749C251.568 233.781 250.926 238.793 251.344 243.824C251.592 246.817 251.171 249.845 249.269 252.405C247.52 254.76 245.11 256.001 242.251 256.38C235.064 257.331 230.864 251.553 230.395 246.063C229.695 237.878 229.579 229.691 229.566 221.493C229.565 220.837 229.521 220.177 229.432 219.526C229.328 218.764 228.901 218.471 228.074 218.464C222.511 218.418 216.963 218.791 211.41 219.021C209.656 219.094 209.251 219.583 209.151 221.315C208.829 226.878 208.952 232.446 208.959 238.011C208.961 239.742 209.268 241.461 209.232 243.205C209.184 245.546 208.942 247.88 208.31 250.102C207.705 252.23 205.973 253.639 204.247 254.956C200.819 257.57 197.13 256.921 193.536 255.605C191.399 254.823 190.112 252.935 189.062 250.908C187.549 247.983 187.131 244.842 187.097 241.642C187.03 235.417 187.077 229.191 187.077 222.965C186.989 222.968 186.9 222.968 186.81 222.968Z" fill="#FEFEFE"/>
<path fill-rule="evenodd" clip-rule="evenodd" d="M340.931 198.417C340.635 194.435 340.415 190.327 340.641 186.235C340.919 181.192 340.661 176.146 340.923 171.115C341.082 168.069 341.527 165.059 343.087 162.23C344.902 158.938 347.715 157.844 351.128 157.376C353.288 157.08 355.433 157.433 357.534 157.327C360.286 157.188 363.04 157.324 365.762 157.369C368.531 157.416 371.337 157.396 374.098 157.421C379.937 157.473 385.79 157.259 391.638 157.29C397.703 157.321 402.583 160.959 403.787 167.047C404.774 172.041 401.144 177.268 396.147 177.996C393.304 178.411 390.458 178.636 387.593 178.532C386.175 178.48 384.8 178.789 383.372 178.762C378.546 178.67 373.719 178.414 368.888 178.606C367.148 178.675 365.407 178.761 363.664 178.81C362.729 178.836 362.305 179.275 362.293 180.207C362.249 183.79 362.337 187.383 362.067 190.949C361.918 192.928 362.154 194.851 362.157 196.8C362.159 197.696 362.39 198.029 363.383 197.956C368.6 197.569 373.84 197.925 379.053 197.601C383.101 197.349 387.134 197.238 391.184 197.396C397.49 197.643 400.419 200.334 402.126 205.311C404.146 211.202 400.431 216.807 394.017 217.33C389.099 217.729 384.169 217.476 379.25 217.662C376.418 217.769 373.594 217.738 370.776 217.592C368.802 217.489 366.853 217.431 364.879 217.588C363.591 217.691 362.816 217.935 362.85 219.492C362.905 221.988 362.856 224.495 362.672 226.983C362.155 233.996 362.575 241.015 362.408 248.029C362.334 251.148 361.796 254.012 359.124 256.271C356.111 258.818 351.477 259.394 348.2 257.83C346.489 257.014 344.747 256.181 343.383 254.721C341.747 252.972 341.41 250.76 341.224 248.62C340.675 242.339 340.375 236.035 340.641 229.724C340.837 225.077 340.757 220.42 340.762 215.779C340.769 210.028 340.617 204.279 340.931 198.417Z" fill="#FEFEFE"/>
<path fill-rule="evenodd" clip-rule="evenodd" d="M306.616 196.505C307.141 208.237 306.706 219.98 306.987 231.711C307.091 236.037 307.131 240.365 307.211 244.691C307.245 246.566 306.901 248.42 306.486 250.226C305.635 253.925 302.104 256.57 298.171 256.925C291.811 257.501 287.488 253.216 286.408 248.2C285.805 245.405 285.954 242.492 285.869 239.622C285.605 230.66 285.672 221.697 285.671 212.734C285.669 202.643 285.67 192.552 285.671 182.462C285.671 182.084 285.64 181.702 285.683 181.33C285.91 179.382 285.912 179.453 283.867 179.354C280.373 179.185 276.906 179.829 273.42 179.641C271.071 179.515 268.716 179.37 266.386 179.066C262.034 178.498 259.965 174.572 259.117 171.348C258.513 169.052 258.814 166.795 259.573 164.551C260.751 161.066 263.402 159.685 266.764 158.89C272.505 157.533 278.335 157.762 284.141 157.567C288.342 157.426 292.541 157.218 296.749 157.26C303.042 157.322 309.338 157.215 315.63 157.305C318.336 157.344 321.134 157.318 323.72 157.983C329.526 159.476 330.301 160.865 331.556 166.655C332.368 170.403 331.209 173.801 328.505 176.602C327.581 177.559 326.405 178.032 325.139 178.221C320.632 178.894 316.114 179.471 311.539 179.371C310.643 179.351 309.739 179.564 308.869 179.532C307.425 179.479 307.118 180.274 307.057 181.403C306.997 182.532 306.921 183.666 306.952 184.795C307.056 188.705 306.448 192.594 306.616 196.505Z" fill="#FEFEFE"/>
<path fill-rule="evenodd" clip-rule="evenodd" d="M145.471 137.488C145.798 136.536 145.922 135.393 147.472 136.267C148.086 136.613 148.396 135.394 149.137 135.497C148.214 136.711 146.85 137.114 145.471 137.488Z" fill="#C4CED3"/>
<path fill-rule="evenodd" clip-rule="evenodd" d="M278.591 292.019C278.268 292.812 277.498 293.034 276.818 293.385C277.198 292.722 277.661 292.147 278.354 291.789C278.433 291.866 278.512 291.943 278.591 292.019Z" fill="#EBEBEB"/>
<path fill-rule="evenodd" clip-rule="evenodd" d="M506.497 217.011C506.183 217.626 505.816 218.172 505.013 218.147C505.465 217.712 505.846 217.184 506.497 217.011Z" fill="#E4E8EB"/>
<path fill-rule="evenodd" clip-rule="evenodd" d="M496.022 225.798C495.703 226.382 495.352 226.927 494.584 226.949C494.981 226.463 495.387 225.986 496.022 225.798Z" fill="#DDE2E7"/>
<path fill-rule="evenodd" clip-rule="evenodd" d="M66.458 169.184C66.223 169.69 65.89 170.057 65.273 170.022C65.587 169.629 65.903 169.238 66.458 169.184Z" fill="#E4E8EC"/>
<path fill-rule="evenodd" clip-rule="evenodd" d="M276.047 293.926C275.855 294.428 275.537 294.808 274.904 295.109C275.111 294.414 275.528 294.124 276.047 293.926Z" fill="#EBEBEB"/>
</svg>
