<?xml version="1.0" standalone="no"?>
<!DOCTYPE svg PUBLIC "-//W3C//DTD SVG 20010904//EN"
 "http://www.w3.org/TR/2001/REC-SVG-20010904/DTD/svg10.dtd">
<svg version="1.0" xmlns="http://www.w3.org/2000/svg"
 width="2048.000000pt" height="2048.000000pt" viewBox="0 0 2048.000000 2048.000000"
 preserveAspectRatio="xMidYMid meet">
<metadata>
Created by potrace 1.11, written by Peter Selinger 2001-2013
</metadata>
<g transform="translate(0.000000,2048.000000) scale(0.100000,-0.100000)"
fill="#000000" stroke="none">
<path d="M8285 16482 c-2 -2 -92 -5 -201 -8 -230 -4 -345 -10 -371 -17 -10 -3
-36 -8 -58 -12 -274 -40 -643 -139 -966 -260 -207 -78 -357 -162 -733 -413
-303 -201 -370 -252 -460 -346 -161 -169 -438 -517 -564 -711 -58 -88 -143
-217 -189 -286 -45 -70 -83 -129 -83 -132 0 -2 -36 -71 -81 -153 -115 -211
-157 -296 -196 -399 -20 -49 -46 -111 -59 -137 -40 -78 -115 -278 -136 -358
-16 -65 -22 -102 -32 -225 -1 -11 8 -57 20 -103 22 -81 80 -188 121 -222 82
-67 115 -91 161 -115 49 -26 72 -33 128 -39 11 -1 24 -5 30 -7 16 -9 181 1
199 12 6 4 18 5 28 4 9 -2 17 1 17 5 0 5 9 7 20 5 11 -2 20 1 20 6 0 6 4 8 9
4 5 -3 13 0 16 6 4 5 13 8 21 5 8 -3 14 -1 14 5 0 6 5 7 10 4 6 -3 10 -1 10 5
0 6 5 8 10 5 6 -3 10 -2 10 4 0 6 6 8 14 5 7 -3 16 2 20 11 3 9 10 14 15 11 5
-3 12 1 15 10 4 9 13 14 22 10 8 -3 12 -2 9 4 -3 6 -2 10 2 10 5 0 22 12 38
28 16 15 32 26 35 25 3 -2 5 1 5 5 0 14 68 82 82 82 6 0 15 5 19 12 5 7 2 8
-7 3 -8 -4 -5 1 6 12 11 11 23 19 28 16 4 -2 7 5 7 16 0 11 8 26 18 33 10 7
24 27 31 45 7 17 21 39 32 49 10 9 16 21 13 25 -3 5 -1 9 4 9 8 0 27 32 31 55
1 6 9 14 17 18 8 4 14 15 14 22 0 8 5 15 11 15 5 0 7 5 4 10 -3 6 -3 10 2 10
8 0 64 119 63 133 -1 5 6 14 16 21 9 7 14 18 11 23 -4 6 0 14 9 17 8 3 13 10
10 14 -3 5 4 18 14 30 11 12 20 24 20 27 0 3 11 23 25 45 14 22 22 40 18 40
-5 0 0 7 10 14 10 8 18 17 18 20 -3 20 0 27 8 22 9 -6 47 62 43 77 -1 4 2 7 7
7 5 0 17 18 27 40 10 22 22 40 27 40 4 0 5 5 2 10 -3 6 -2 10 2 10 13 0 43 56
35 65 -4 5 -2 5 5 1 7 -3 14 2 18 14 3 11 11 20 16 20 5 0 9 6 9 13 0 8 11 24
25 37 13 12 22 27 19 31 -3 5 0 9 5 9 6 0 22 17 35 38 13 22 32 46 41 55 9 10
13 17 9 17 -4 0 6 13 22 29 39 38 65 71 57 71 -4 0 2 7 13 15 10 8 15 15 10
15 -5 0 3 10 18 21 15 12 25 24 22 27 -3 3 3 12 14 19 11 8 17 19 14 25 -4 6
-3 8 3 5 12 -7 123 100 120 116 -1 6 3 11 8 12 16 1 54 38 49 47 -3 4 -1 8 3
8 9 0 59 38 93 70 8 8 28 21 42 29 15 8 25 18 22 23 -3 5 -2 8 3 7 18 -3 30 2
49 19 10 10 51 40 89 67 39 27 72 52 75 55 20 21 528 275 630 315 98 38 113
42 160 50 19 3 58 12 85 19 28 8 75 17 105 19 31 3 95 13 142 22 109 20 260
31 458 34 182 2 372 -18 753 -79 152 -25 243 -52 426 -129 75 -32 170 -71 211
-86 115 -44 276 -131 370 -200 47 -34 119 -86 161 -116 286 -203 490 -441 734
-857 6 -10 31 -54 58 -98 26 -45 58 -108 71 -140 102 -249 205 -403 371 -554
66 -60 136 -117 155 -127 19 -10 46 -25 60 -34 63 -39 276 -66 360 -45 14 3
50 11 80 18 93 20 150 39 150 49 0 5 6 6 14 3 7 -3 21 2 29 11 9 9 19 14 21
13 3 -2 14 5 26 14 11 10 20 14 20 10 0 -4 4 -2 8 4 4 5 39 28 77 49 39 21 71
42 73 47 2 4 10 8 18 8 8 0 26 11 40 25 13 13 27 24 30 24 3 0 17 9 32 20 15
12 45 34 67 51 22 16 45 34 52 40 7 5 15 10 19 10 6 0 78 54 103 78 7 7 41 27
75 44 33 17 63 34 64 39 2 5 7 7 12 4 4 -2 52 14 106 36 258 105 456 121 769
64 206 -38 254 -55 365 -129 76 -49 295 -258 283 -269 -3 -4 2 -9 11 -13 9 -3
16 -12 16 -20 0 -7 6 -17 13 -21 13 -9 28 -32 52 -78 8 -16 26 -48 40 -70 14
-22 28 -47 31 -55 3 -8 11 -26 17 -40 6 -14 10 -28 9 -32 -1 -5 2 -8 8 -8 6 0
9 -3 8 -7 -4 -19 15 -62 25 -56 5 3 7 1 4 -4 -4 -6 0 -23 7 -39 8 -16 26 -56
42 -89 15 -33 35 -72 45 -86 10 -14 16 -29 12 -32 -3 -4 2 -9 11 -13 9 -3 16
-10 16 -16 0 -13 59 -87 100 -126 44 -41 150 -116 150 -106 0 4 6 0 13 -9 6
-9 48 -26 92 -38 44 -11 89 -23 100 -26 63 -19 295 3 295 28 0 5 7 5 17 2 12
-5 14 -3 8 7 -5 9 -4 11 3 6 11 -7 102 48 102 61 0 3 -8 0 -17 -7 -10 -7 2 6
26 28 25 23 41 42 36 42 -4 0 1 8 12 18 10 9 25 32 32 50 8 17 17 32 21 32 3
0 7 6 7 13 0 6 10 56 23 110 21 90 22 114 17 280 -7 212 -11 232 -108 477 -87
220 -103 248 -273 480 -104 142 -168 218 -255 303 -64 61 -129 120 -144 130
-16 11 -25 23 -21 30 4 7 4 9 0 5 -11 -10 -67 43 -59 56 3 6 3 8 -1 4 -7 -6
-27 7 -62 40 -7 7 -16 11 -18 10 -3 -2 -14 5 -26 14 -11 10 -20 15 -20 13 0
-3 -10 3 -22 14 -11 11 -25 18 -29 15 -4 -2 -12 4 -18 13 -6 10 -11 14 -11 10
0 -4 -10 1 -22 13 -12 11 -28 20 -35 20 -7 0 -13 5 -13 11 0 5 -4 7 -10 4 -5
-3 -10 -1 -10 5 0 6 -4 9 -9 6 -5 -3 -11 1 -15 9 -3 8 -15 15 -26 15 -11 0
-20 4 -20 8 0 32 -467 207 -617 231 -146 24 -351 42 -403 37 -30 -4 -115 -9
-189 -11 -74 -3 -137 -8 -141 -10 -4 -2 -33 -7 -65 -10 -98 -9 -361 -80 -565
-151 -122 -42 -235 -100 -413 -210 -48 -30 -90 -54 -93 -54 -2 0 -26 -11 -53
-23 -41 -21 -51 -22 -66 -10 -11 7 -15 13 -10 13 5 0 0 7 -11 15 -10 8 -14 15
-9 15 6 0 6 3 0 8 -18 13 -65 113 -58 124 3 7 1 8 -5 4 -11 -6 -16 6 -13 27 0
4 -4 7 -9 7 -6 0 -10 7 -10 15 0 8 -5 15 -11 15 -5 0 -8 4 -5 9 4 5 3 11 -2
13 -10 4 -74 108 -67 108 3 0 -3 10 -15 22 -11 12 -20 26 -20 30 0 5 -9 18
-20 30 -10 12 -17 25 -14 30 3 4 1 8 -4 8 -5 0 -22 19 -38 43 -16 23 -35 46
-42 50 -7 5 -10 12 -7 17 3 4 -2 11 -11 14 -8 3 -12 11 -8 17 4 7 3 9 -4 5 -6
-3 -17 2 -24 12 -27 38 -161 191 -243 277 -11 12 -35 41 -54 66 -19 24 -66 70
-103 102 -39 33 -65 63 -62 69 4 6 3 8 -3 5 -11 -7 -65 56 -58 67 3 3 2 4 -1
1 -4 -2 -24 10 -44 28 -20 17 -74 61 -120 97 -45 36 -87 72 -94 80 -6 8 -19
20 -28 25 -9 6 -58 42 -110 81 -198 151 -607 387 -803 464 -70 27 -189 75
-250 101 -11 5 -38 13 -60 18 -22 5 -94 28 -159 50 -138 47 -297 82 -431 97
-33 3 -63 8 -66 10 -17 10 -774 35 -784 26z"/>
<path d="M5229 12783 c-13 -16 -12 -17 4 -4 9 7 17 15 17 17 0 8 -8 3 -21 -13z"/>
<path d="M3383 12256 c-28 -7 -80 -30 -115 -51 -35 -21 -97 -59 -139 -84 -41
-25 -88 -56 -105 -69 -16 -13 -78 -56 -139 -97 -60 -40 -161 -109 -224 -152
-147 -101 -296 -198 -342 -223 -20 -11 -92 -61 -160 -112 -67 -51 -142 -106
-165 -123 -23 -16 -89 -67 -146 -113 -57 -46 -173 -135 -258 -198 -85 -62
-193 -142 -240 -176 -46 -35 -132 -108 -190 -163 -249 -236 -283 -284 -310
-442 -10 -65 -9 -80 10 -159 12 -48 34 -117 50 -155 30 -75 97 -172 111 -163
5 3 8 2 7 -3 -3 -10 218 -233 277 -279 22 -18 76 -62 120 -99 89 -75 338 -274
545 -437 74 -58 149 -118 165 -132 17 -15 111 -88 210 -164 99 -75 195 -150
214 -167 18 -16 48 -43 66 -60 52 -48 75 -65 100 -77 14 -6 22 -14 20 -18 -2
-4 8 -13 23 -21 15 -7 39 -26 53 -41 14 -16 29 -28 32 -28 7 0 53 -37 94 -77
13 -12 23 -19 23 -15 0 4 8 -2 18 -14 19 -23 96 -74 112 -74 5 0 10 -5 10 -11
0 -6 7 -9 15 -6 8 4 17 2 20 -4 4 -5 10 -7 15 -4 5 3 11 1 14 -4 7 -10 28 -12
136 -13 50 0 84 7 145 31 72 28 171 91 163 105 -2 3 7 13 20 21 22 16 58 73
54 88 -1 4 3 7 9 7 5 0 7 5 4 10 -3 6 -1 10 5 10 6 0 8 5 5 10 -3 6 -2 10 3
10 5 0 9 6 10 13 2 22 7 42 15 55 5 6 5 17 2 22 -3 6 -3 16 1 22 12 19 15 47
15 123 -1 101 -5 135 -15 135 -4 0 -6 7 -3 15 4 8 2 17 -3 20 -5 3 -7 14 -5
25 3 13 0 18 -7 14 -8 -5 -9 -1 -5 10 4 10 3 15 -3 11 -9 -5 -15 16 -11 38 1
5 -3 6 -9 2 -5 -3 -10 -1 -10 5 0 11 -4 18 -45 64 -13 16 -22 34 -18 40 3 6 3
8 -2 4 -7 -7 -32 11 -31 22 1 10 -63 70 -74 70 -6 0 -8 5 -5 10 3 6 1 10 -5
10 -6 0 -41 31 -78 68 -37 37 -85 81 -107 97 -22 16 -53 42 -69 57 -16 15 -33
25 -37 22 -4 -2 -11 1 -15 7 -5 8 -3 9 7 4 8 -4 5 1 -6 12 -11 11 -21 19 -23
18 -3 -3 -31 21 -82 71 -14 13 -30 24 -37 24 -6 0 -14 7 -17 16 -4 9 -9 15
-11 12 -3 -3 -28 17 -57 43 -29 26 -56 45 -62 42 -5 -3 -6 -1 -2 5 7 11 -32
38 -47 34 -5 -1 -6 2 -3 7 3 5 -6 17 -20 26 -24 15 -67 51 -98 81 -65 62 -405
359 -435 381 -11 7 -24 26 -29 42 -12 35 -5 42 141 151 54 40 101 79 104 85 2
7 14 15 25 18 11 3 17 10 13 17 -4 6 -1 9 7 8 7 -2 12 3 10 10 -1 8 1 11 6 8
5 -3 20 6 35 20 14 13 31 24 36 24 6 0 14 6 18 14 4 7 25 25 45 39 20 13 34
27 31 31 -4 3 2 6 13 6 10 0 32 14 48 30 16 17 35 30 42 30 7 0 16 5 20 12 4
7 3 8 -4 4 -24 -15 -11 2 14 19 18 12 24 13 19 4 -4 -8 3 -3 16 11 36 39 83
77 74 60 -8 -16 -7 -15 56 42 59 53 72 63 64 48 -5 -8 3 -4 17 10 36 35 56 50
65 51 5 0 18 9 31 19 12 11 26 20 31 20 5 0 12 7 15 16 3 8 10 12 16 9 5 -3
10 -1 10 4 0 6 5 11 10 11 6 0 23 13 39 29 15 16 38 32 50 36 12 3 19 10 17
14 -3 3 12 18 32 31 20 14 43 33 50 42 7 10 20 18 28 18 8 0 13 6 11 13 -1 6
4 11 11 9 8 -1 11 1 8 6 -2 4 16 28 41 52 26 25 43 39 39 33 -4 -7 -5 -13 -1
-13 3 0 10 12 15 26 6 14 15 22 20 19 6 -4 9 -1 8 7 -2 7 3 12 10 10 8 -1 11
2 7 8 -3 5 5 14 19 20 14 5 26 12 26 15 0 4 -6 3 -12 -1 -9 -5 -9 -3 1 9 7 9
17 14 22 11 5 -3 8 0 7 8 -2 7 3 12 10 10 8 -1 11 2 8 7 -3 5 10 23 29 40 20
17 32 31 28 31 -4 0 3 10 17 21 14 11 19 17 11 13 -7 -4 -2 10 12 31 14 21 24
42 21 47 -3 4 0 8 5 8 6 0 10 3 9 8 -1 4 3 17 10 28 6 12 8 24 5 28 -3 3 -1 6
6 6 8 0 11 7 7 15 -3 8 -2 15 3 15 4 0 8 6 9 13 0 6 3 32 7 56 10 85 4 158
-17 209 -6 15 -12 29 -13 32 -8 33 -63 115 -102 153 -52 51 -141 109 -155 101
-4 -3 -8 -1 -8 4 0 29 -194 49 -277 28z"/>
<path d="M16945 12214 c-49 -12 -114 -40 -160 -70 -69 -44 -184 -172 -168
-188 3 -3 0 -6 -7 -6 -7 0 -10 -3 -7 -7 4 -3 2 -12 -4 -20 -6 -7 -8 -13 -3
-13 5 0 4 -4 -3 -8 -7 -4 -14 -23 -17 -42 -2 -19 -9 -57 -16 -85 -6 -27 -8
-70 -5 -95 14 -114 18 -136 27 -147 6 -7 8 -13 4 -13 -9 0 49 -111 73 -140 12
-14 41 -47 64 -74 23 -27 74 -74 112 -105 39 -30 86 -70 105 -87 19 -18 112
-88 205 -156 335 -244 390 -285 534 -396 80 -62 161 -125 180 -140 18 -15 41
-31 50 -36 9 -5 20 -15 24 -23 4 -7 12 -13 17 -13 6 0 27 -16 47 -35 20 -19
38 -33 40 -31 2 2 23 -15 48 -37 68 -61 63 -77 -42 -162 -48 -38 -123 -104
-167 -145 -45 -42 -137 -123 -206 -180 -69 -58 -156 -132 -195 -165 -38 -33
-151 -125 -250 -205 -241 -193 -533 -489 -600 -607 -36 -65 -82 -205 -90 -276
-19 -173 89 -373 247 -457 80 -43 145 -58 233 -53 107 5 115 6 115 16 0 5 7 6
17 3 10 -4 25 2 40 15 12 13 23 19 23 14 0 -5 7 0 16 11 8 10 13 12 9 4 -4 -8
3 -4 14 10 11 14 21 21 21 15 0 -5 5 -2 11 8 5 9 18 17 29 17 10 0 28 12 40
28 12 15 19 20 15 12 -4 -10 -2 -9 8 2 8 10 17 15 20 11 4 -3 9 2 13 11 3 9
10 13 15 10 5 -3 9 0 9 5 0 6 7 11 15 11 8 0 14 5 12 12 -1 7 3 12 8 13 6 0
21 10 35 23 13 12 30 22 37 22 7 0 13 4 13 9 0 5 9 13 20 16 11 4 18 10 15 15
-3 5 5 12 17 15 13 4 34 19 48 34 14 15 23 22 20 16 -3 -6 2 -3 11 7 9 9 19
14 23 11 3 -4 6 1 6 9 0 9 8 22 18 29 16 13 16 13 2 -6 -11 -15 -7 -14 15 5
17 14 31 28 33 33 2 4 10 7 18 7 8 0 17 7 20 15 4 8 13 15 20 15 8 0 17 6 20
14 3 7 21 22 40 32 19 10 34 24 34 31 0 6 5 15 12 19 7 5 8 3 3 -6 -5 -7 4 -5
18 6 15 10 27 22 27 27 0 4 6 7 14 7 7 0 21 10 30 23 9 12 14 15 11 7 -4 -10
-2 -9 8 2 8 10 17 15 20 12 3 -3 12 3 19 15 7 12 18 21 25 21 7 0 13 5 13 10
0 6 7 10 15 10 7 0 18 7 23 16 5 9 11 15 13 14 11 -4 38 13 33 21 -3 5 0 9 7
9 6 0 18 8 26 18 8 10 11 11 7 2 -7 -13 -5 -13 9 -1 9 7 14 17 11 22 -3 5 2 9
10 9 9 0 16 4 16 10 0 5 6 9 13 7 6 -1 11 4 9 11 -1 8 2 11 8 7 5 -3 13 1 16
9 3 9 12 16 20 16 7 0 21 11 30 25 9 13 24 27 35 30 10 4 18 12 16 18 -1 7 3
11 9 10 7 -1 23 9 38 22 14 13 41 36 61 50 19 15 32 31 29 36 -3 5 0 9 6 9 6
0 32 21 58 48 26 26 40 38 32 27 -14 -19 -14 -19 3 -6 9 7 17 20 17 28 0 8 4
12 8 9 5 -3 25 10 45 29 19 18 38 31 41 28 3 -4 6 1 6 11 0 9 4 15 9 11 6 -3
15 4 21 15 6 11 15 18 19 16 4 -3 20 10 36 29 15 19 33 35 41 35 8 0 13 6 11
13 -1 6 3 11 10 10 7 -2 17 6 23 17 6 11 15 18 20 15 5 -3 13 3 19 12 6 10 11
14 11 10 0 -4 16 9 37 30 20 21 30 29 22 18 -13 -18 -13 -19 4 -6 9 7 17 20
17 27 0 8 3 13 8 12 4 -1 20 10 36 25 16 14 32 24 37 21 5 -3 6 1 4 8 -3 8 9
27 26 43 18 17 28 24 24 16 -5 -9 -4 -12 3 -7 7 4 12 14 12 22 0 8 5 12 10 9
6 -3 10 -1 10 6 0 6 12 23 28 37 15 14 27 30 27 36 1 6 7 10 14 8 7 -1 10 2 7
7 -3 5 1 14 9 21 8 7 15 9 15 4 0 -5 9 6 20 24 11 17 24 32 30 32 5 0 10 7 10
15 0 9 7 18 15 21 8 4 15 12 15 19 0 7 3 15 8 17 17 8 63 123 77 194 8 42 17
79 20 82 3 3 1 10 -4 16 -5 6 -11 25 -13 41 -2 17 -7 33 -11 36 -5 4 -10 18
-10 32 -1 14 -5 23 -9 21 -6 -4 -21 48 -18 62 1 4 -2 10 -7 13 -5 3 -22 30
-38 58 -27 50 -145 174 -265 278 -30 27 -57 51 -60 55 -3 3 -26 21 -52 40 -27
18 -48 37 -48 42 0 5 -4 7 -9 4 -5 -4 -11 -3 -13 1 -4 10 -105 93 -112 93 -3
0 -16 10 -28 23 -13 12 -39 33 -58 47 -18 14 -45 34 -59 46 -14 11 -53 39 -86
62 -100 69 -187 133 -202 148 -8 8 -18 14 -22 14 -5 0 -21 12 -38 28 -16 15
-45 38 -64 52 -19 13 -38 28 -44 32 -29 24 -348 248 -352 248 -4 0 -21 11 -39
25 -18 14 -35 25 -38 25 -8 0 -130 83 -137 93 -3 5 -9 8 -13 8 -8 -2 -79 48
-290 201 -216 157 -245 171 -366 174 -52 2 -104 1 -115 -2z"/>
<path d="M8186 11944 c-60 -19 -110 -50 -159 -99 -57 -57 -79 -107 -88 -205
-12 -129 1 -1003 16 -1102 3 -16 1 -28 -4 -28 -5 0 -7 -8 -4 -19 7 -28 -19
-31 -310 -37 -144 -3 -284 -6 -310 -8 -26 -1 -61 4 -77 11 -28 11 -30 16 -32
73 -1 33 -3 86 -4 118 -2 31 -5 201 -8 377 -5 313 -11 455 -21 505 -10 48 -17
95 -18 123 -1 15 -6 27 -11 27 -4 0 -6 7 -2 15 3 8 1 15 -5 15 -6 0 -8 7 -5
16 3 8 2 12 -4 9 -9 -5 -12 1 -9 21 0 3 -10 15 -23 26 -13 11 -23 23 -23 28 0
5 -4 12 -9 17 -5 5 -6 2 -1 -7 4 -8 -7 1 -26 20 -18 19 -32 40 -30 45 1 6 -1
7 -5 2 -4 -4 -14 -1 -23 6 -36 29 -116 48 -192 44 -80 -4 -178 -42 -239 -94
-35 -29 -81 -115 -98 -183 -27 -109 -37 -418 -24 -750 13 -306 20 -701 27
-1470 6 -629 7 -649 52 -766 50 -131 122 -213 207 -235 20 -5 51 -13 69 -17
30 -8 155 -8 187 1 29 7 70 30 70 39 0 4 6 8 13 8 19 0 133 116 146 148 32 78
37 170 36 588 -2 480 -1 500 29 519 25 16 137 24 448 30 208 4 228 3 236 -13
5 -9 12 -186 16 -392 7 -390 9 -435 31 -587 16 -114 43 -173 111 -240 73 -71
144 -103 230 -103 81 0 174 24 206 54 12 11 25 21 28 20 5 0 11 4 45 34 12 9
16 15 10 12 -6 -3 -1 4 10 15 26 25 62 80 45 70 -7 -4 -5 4 4 17 9 14 13 28 9
31 -3 4 -2 7 3 7 6 0 11 12 13 28 6 64 5 1221 -1 1267 -3 28 -9 325 -13 660
-11 922 -12 952 -36 1036 -7 24 -13 46 -13 49 -1 5 -35 60 -58 93 -20 29 -83
94 -74 77 4 -9 2 -8 -7 2 -8 10 -17 15 -20 11 -4 -3 -7 -1 -7 5 0 7 -9 12 -20
12 -11 0 -20 5 -20 10 0 6 -6 10 -12 8 -7 -1 -22 2 -33 8 -32 16 -164 15 -219
-2z"/>
<path d="M10166 11922 c-3 -2 -162 -8 -476 -17 -185 -5 -276 -13 -350 -31 -37
-9 -62 -12 -92 -13 -15 -1 -34 -9 -44 -18 -10 -10 -18 -17 -18 -16 -3 7 -46
-11 -46 -19 0 -5 -4 -7 -8 -4 -4 2 -16 -3 -27 -12 -31 -26 -72 -76 -55 -67 12
7 12 5 -1 -11 -17 -20 -35 -63 -31 -76 1 -5 -2 -8 -6 -8 -5 0 -9 -6 -10 -12
-8 -96 -10 -153 -5 -162 4 -6 8 -22 9 -37 1 -14 11 -41 22 -61 11 -20 19 -38
17 -40 -2 -1 16 -28 39 -58 81 -108 152 -123 563 -124 l293 -1 4 -1140 c3
-627 8 -1169 11 -1205 16 -168 100 -296 233 -358 48 -22 70 -26 137 -25 101 1
165 12 172 29 2 7 10 11 17 8 7 -3 32 14 56 37 24 23 39 36 35 29 -5 -9 -4
-11 3 -6 7 4 12 14 12 22 0 8 5 14 10 14 6 0 10 6 10 14 0 7 6 19 14 25 15 13
24 54 40 186 8 68 8 78 -3 965 -4 355 -6 782 -4 950 6 383 6 407 15 415 4 4 4
13 2 20 -7 18 15 21 151 23 172 3 440 31 517 54 56 17 116 73 148 139 16 33
27 59 25 59 -2 0 2 15 9 33 9 20 12 59 9 107 -6 110 -7 120 -16 120 -5 0 -6 4
-2 9 3 5 0 13 -6 16 -5 4 -8 13 -5 21 3 8 1 14 -4 14 -4 0 -14 16 -20 36 -7
20 -20 44 -29 53 -32 30 -80 61 -96 61 -8 0 -15 5 -15 11 0 5 -4 8 -9 4 -5 -3
-12 -1 -15 4 -7 10 -76 22 -156 26 -30 1 -91 6 -135 10 -73 6 -883 13 -889 7z"/>
<path d="M12305 11922 c-2 -2 -19 -6 -37 -7 -104 -11 -134 -18 -173 -40 -107
-63 -174 -180 -190 -335 -4 -36 -9 -68 -12 -73 -2 -4 -6 -560 -8 -1235 -5
-1561 0 -1650 99 -1755 27 -28 75 -60 131 -88 81 -40 96 -44 172 -46 54 -1 95
3 118 13 19 8 35 11 35 7 0 -4 7 2 15 13 8 10 15 15 15 10 0 -5 12 1 27 15 14
13 23 18 18 10 -5 -9 -4 -12 3 -7 7 4 12 14 12 23 0 9 3 13 7 10 3 -4 13 2 20
13 8 11 19 17 25 14 6 -4 8 -2 4 4 -3 6 0 17 9 25 8 8 23 37 33 64 16 43 19
84 20 383 2 304 5 437 17 734 2 54 6 101 9 103 10 11 135 21 206 16 95 -5 455
-5 710 1 264 7 321 23 404 118 57 65 79 131 74 221 -2 34 -8 68 -12 76 -4 7
-5 15 -2 18 3 4 -1 15 -11 25 -9 10 -13 18 -9 18 4 0 -2 12 -13 26 -11 15 -19
30 -16 34 3 4 -2 11 -11 14 -8 3 -12 10 -9 16 3 5 2 10 -3 10 -15 0 -61 47
-54 56 4 4 2 4 -5 0 -6 -3 -18 3 -27 15 -8 12 -19 18 -24 15 -6 -3 -12 -1 -14
4 -2 6 -12 13 -23 15 -11 2 -20 4 -20 5 0 3 -39 10 -70 13 -17 2 -35 5 -40 8
-6 3 -98 4 -205 2 -504 -8 -677 -12 -702 -17 -16 -2 -28 -1 -28 4 0 6 -10 6
-22 1 -13 -4 -41 -7 -63 -7 -33 1 -40 5 -41 21 -1 11 -5 56 -9 99 -4 45 -4 76
1 73 5 -3 9 95 9 225 -1 182 2 234 13 244 17 17 41 18 472 19 461 2 558 4 672
21 145 20 188 43 248 129 26 39 57 120 60 160 6 85 -8 170 -32 202 -5 7 -6 18
-2 24 4 8 3 9 -4 5 -7 -4 -12 -2 -12 5 0 6 -13 26 -29 44 -16 18 -30 37 -32
42 -5 11 -105 75 -141 90 -59 26 -159 35 -373 33 -241 -2 -478 -1 -540 1 -22
1 -48 -2 -58 -6 -10 -4 -35 -4 -55 0 -20 3 -59 6 -87 5 -53 -3 -98 -2 -167 0
-24 1 -62 0 -85 -3 -23 -3 -45 -2 -48 2 -7 7 -133 10 -140 3z"/>
<path d="M3799 11393 c-13 -16 -12 -17 4 -4 9 7 17 15 17 17 0 8 -8 3 -21 -13z"/>
<path d="M19199 9613 c-13 -16 -12 -17 4 -4 9 7 17 15 17 17 0 8 -8 3 -21 -13z"/>
<path d="M7129 8513 c-13 -16 -12 -17 4 -4 9 7 17 15 17 17 0 8 -8 3 -21 -13z"/>
<path d="M4056 7733 c-2 -2 -15 -6 -28 -8 -58 -9 -108 -27 -108 -38 0 -6 -3
-7 -7 -4 -9 10 -71 -31 -126 -82 -86 -81 -148 -244 -168 -441 -11 -113 2 -170
57 -255 37 -59 189 -212 205 -207 6 1 8 -1 5 -6 -7 -11 90 -90 289 -236 126
-92 198 -136 335 -205 158 -79 313 -141 351 -141 8 0 48 -11 89 -24 41 -14 89
-27 105 -30 17 -3 73 -15 125 -26 130 -29 192 -39 280 -46 41 -3 91 -10 111
-15 40 -10 213 -12 354 -5 50 3 151 7 225 10 74 3 155 8 180 11 25 3 77 8 115
10 72 5 160 18 230 35 157 36 337 79 705 169 286 70 406 84 685 77 132 -3 274
-10 315 -15 91 -13 146 -19 225 -26 171 -15 246 -36 420 -118 306 -143 495
-271 701 -474 100 -99 257 -226 337 -273 56 -33 166 -62 239 -62 61 0 79 4
143 37 79 40 187 130 251 209 21 27 51 62 66 77 14 15 24 30 21 32 -2 3 5 8
16 12 12 3 19 10 16 15 -3 4 2 11 11 14 8 3 13 10 9 15 -3 5 4 12 15 16 11 3
20 10 20 15 0 10 100 109 156 155 20 17 42 35 48 41 6 6 22 16 34 23 12 7 20
16 17 21 -3 5 4 11 15 15 11 4 18 11 15 16 -4 5 0 9 8 9 20 0 68 26 61 32 -2
3 2 8 11 12 11 4 14 2 10 -7 -4 -6 0 -4 8 5 8 10 17 15 20 11 4 -3 9 2 13 11
3 9 10 13 15 10 5 -3 9 0 9 7 0 7 3 9 7 6 3 -4 18 3 31 15 14 13 22 16 18 8
-5 -9 -2 -8 7 2 8 10 17 15 20 11 4 -3 7 -1 7 6 0 7 5 9 10 6 6 -3 10 -2 10 4
0 6 7 8 15 5 8 -4 15 -1 15 6 0 6 4 9 9 5 5 -3 12 -1 16 4 3 6 12 8 20 4 8 -3
15 0 15 7 0 6 5 8 10 5 6 -3 10 -1 10 5 0 6 4 9 9 5 5 -3 12 -1 16 5 4 6 11 8
16 5 5 -4 9 -1 9 5 0 6 5 8 10 5 6 -3 10 -2 10 4 0 6 7 8 15 5 8 -4 15 -1 15
5 0 6 7 8 15 5 8 -4 15 -1 15 5 0 6 3 10 8 9 4 -1 57 14 117 34 148 49 224 66
352 78 176 16 544 0 713 -31 30 -6 80 -15 110 -20 30 -6 80 -17 110 -24 30 -7
66 -13 80 -13 14 0 81 -16 150 -35 69 -20 136 -38 150 -41 14 -2 81 -18 150
-35 118 -28 208 -45 395 -72 44 -6 132 -22 195 -35 63 -13 162 -30 220 -38
113 -15 381 -18 495 -5 39 4 102 10 140 14 77 8 323 50 370 65 29 8 110 25
171 36 16 2 56 13 89 24 33 10 94 29 135 40 41 12 91 27 110 33 37 11 80 35
92 52 4 5 8 6 8 2 0 -5 13 1 29 12 16 12 36 21 44 21 9 0 19 5 22 10 4 6 11 8
16 5 5 -4 9 -1 9 5 0 6 4 9 9 5 5 -3 17 5 25 17 9 12 16 19 16 14 0 -5 10 -1
22 10 13 12 18 13 13 4 -8 -13 -7 -13 11 0 10 8 25 22 32 30 12 13 13 13 6 0
-4 -8 5 -3 21 13 15 15 33 27 40 27 7 0 15 7 19 15 3 8 10 14 15 13 18 -5 115
94 104 106 -4 3 -1 6 6 6 7 0 10 4 7 9 -3 5 1 11 9 15 8 3 15 12 15 19 0 8 11
27 24 42 14 16 23 32 20 37 -3 4 0 8 5 8 6 0 11 7 11 15 0 8 5 15 11 15 5 0 7
4 4 10 -3 5 -2 10 3 10 8 0 30 58 40 105 2 11 5 25 6 30 1 6 8 21 16 35 7 14
13 26 12 28 -1 1 -2 3 -1 5 1 5 8 33 13 55 13 58 4 188 -14 223 -5 9 -6 19 -3
23 3 3 1 6 -5 6 -7 0 -11 3 -10 8 3 12 -28 75 -56 111 -14 19 -26 32 -26 29 0
-4 -17 9 -37 28 -75 69 -77 70 -69 54 5 -9 2 -8 -7 2 -8 10 -17 15 -21 11 -3
-4 -13 2 -22 13 -8 10 -12 13 -9 6 6 -10 3 -11 -11 -3 -49 26 -76 31 -154 31
-84 0 -110 -3 -110 -12 0 -4 -7 -5 -15 -2 -8 4 -15 1 -15 -6 0 -6 -4 -9 -9 -5
-5 3 -12 1 -16 -5 -4 -6 -11 -8 -16 -5 -5 4 -9 1 -9 -5 0 -6 -4 -9 -9 -5 -6 3
-14 -2 -19 -10 -4 -9 -18 -17 -29 -18 -12 0 -20 -4 -17 -8 2 -4 -9 -10 -26
-14 -16 -4 -30 -10 -30 -15 0 -6 -36 -21 -49 -19 -2 0 -7 -3 -10 -8 -8 -11
-103 -57 -113 -55 -5 1 -8 -3 -8 -9 0 -5 -4 -7 -10 -4 -5 3 -10 1 -10 -4 0 -6
-9 -11 -19 -11 -11 0 -23 -5 -26 -11 -4 -6 -14 -8 -22 -5 -8 3 -11 1 -8 -4 3
-6 0 -10 -8 -10 -9 0 -45 -13 -81 -30 -36 -16 -66 -27 -66 -23 0 3 -7 0 -15
-7 -8 -7 -22 -10 -30 -6 -10 3 -13 2 -10 -4 4 -6 -5 -11 -22 -11 -77 -1 -92
-3 -87 -10 3 -5 -3 -9 -13 -10 -10 0 -27 -3 -38 -5 -11 -3 -32 -6 -47 -6 -16
-1 -28 -5 -28 -9 0 -5 -16 -7 -35 -5 -19 1 -35 0 -35 -4 0 -3 -26 -6 -57 -7
-32 0 -75 -3 -95 -6 -24 -5 -38 -3 -38 4 0 5 -5 7 -11 3 -15 -9 -209 -14 -209
-5 0 3 -24 7 -52 7 -66 1 -143 11 -183 22 -16 5 -42 7 -57 5 -16 -2 -28 0 -28
5 0 5 -6 9 -12 10 -52 3 -102 13 -107 20 -3 4 -16 8 -28 9 -13 0 -24 2 -25 3
-7 5 -116 23 -145 24 -13 1 -23 4 -23 8 0 3 -11 5 -25 3 -14 -1 -25 1 -25 6 0
4 -8 8 -17 7 -18 0 -55 6 -103 16 -14 3 -41 8 -60 10 -19 3 -45 7 -56 10 -12
2 -37 7 -55 10 -40 7 -75 14 -109 22 -14 3 -34 7 -45 9 -11 2 -29 6 -40 8 -21
5 -98 17 -155 24 -106 13 -196 26 -250 38 -14 3 -38 8 -55 11 -16 2 -46 9 -67
15 -20 5 -62 11 -95 13 -32 2 -66 7 -75 11 -10 4 -25 5 -33 1 -8 -3 -15 -1
-15 3 0 5 -23 8 -51 7 -28 -1 -53 2 -55 6 -3 4 -28 7 -57 8 -329 4 -429 3
-472 -3 -27 -4 -68 -9 -90 -11 -35 -3 -112 -14 -155 -21 -8 -2 -50 -8 -92 -15
-43 -7 -78 -17 -78 -22 0 -5 -5 -6 -10 -3 -13 8 -150 -27 -150 -38 0 -4 -4 -6
-9 -3 -5 4 -22 1 -38 -5 -15 -7 -37 -14 -48 -16 -11 -2 -22 -8 -23 -13 -2 -6
-8 -8 -13 -5 -4 3 -30 -4 -56 -16 -138 -62 -173 -78 -233 -104 -36 -16 -116
-59 -178 -97 -63 -37 -117 -68 -121 -68 -10 0 -133 -87 -282 -201 -64 -48
-135 -98 -158 -111 -23 -13 -51 -28 -62 -34 -16 -9 -32 -8 -67 2 -26 8 -49 15
-52 15 -3 1 -4 5 -3 10 2 5 0 8 -5 7 -6 -3 -47 30 -93 74 -10 9 -20 14 -23 11
-3 -3 -8 2 -12 11 -3 9 -9 14 -13 11 -4 -2 -28 15 -53 38 -25 23 -50 43 -55
45 -4 1 -17 11 -28 20 -11 10 -23 17 -27 17 -4 0 -16 7 -26 16 -10 8 -26 18
-36 22 -9 4 -14 11 -11 17 3 6 -1 7 -9 4 -9 -3 -16 -1 -16 5 0 6 -7 11 -15 11
-9 0 -18 7 -21 15 -4 8 -10 12 -15 9 -5 -3 -12 2 -15 10 -3 9 -10 13 -15 10
-5 -3 -12 2 -15 10 -3 9 -10 13 -15 10 -5 -3 -9 -1 -9 4 0 11 -38 25 -59 22
-8 -1 -10 3 -5 11 4 7 3 10 -4 5 -6 -3 -26 3 -44 14 -18 11 -41 20 -50 20 -9
0 -23 6 -30 13 -7 6 -26 14 -43 15 -16 2 -31 8 -33 12 -2 5 -10 6 -18 3 -8 -3
-14 0 -14 6 0 6 -7 8 -17 4 -11 -5 -14 -3 -8 6 5 10 2 11 -13 7 -11 -4 -26 -1
-33 6 -8 7 -25 14 -39 16 -14 1 -27 7 -28 12 -2 6 -8 8 -13 4 -5 -3 -15 -2
-21 3 -7 4 -15 8 -18 9 -50 10 -98 29 -94 36 4 6 -2 8 -15 3 -12 -4 -21 -2
-21 4 0 6 -3 10 -7 10 -15 -3 -73 14 -73 20 0 4 -8 7 -17 8 -16 1 -50 9 -63
13 -3 1 -9 2 -14 1 -4 -1 -14 4 -22 10 -8 6 -14 8 -14 4 0 -4 -6 -3 -12 2 -7
5 -32 8 -55 7 -24 0 -43 2 -43 5 0 3 -10 7 -22 8 -276 25 -584 32 -808 18 -58
-4 -130 -8 -160 -10 -30 -2 -73 -6 -95 -9 -59 -10 -105 -16 -147 -21 -20 -2
-92 -13 -160 -24 -67 -11 -150 -23 -183 -27 -33 -3 -69 -8 -80 -11 -11 -3 -27
-5 -35 -5 -19 0 -150 -27 -170 -35 -8 -4 -18 -6 -21 -5 -3 0 -45 -10 -92 -23
-48 -13 -87 -21 -87 -18 0 3 -7 0 -15 -7 -8 -7 -15 -10 -15 -8 0 3 -21 1 -47
-3 -27 -4 -66 -10 -88 -14 -22 -3 -67 -13 -100 -21 -33 -9 -67 -17 -75 -19 -8
-1 -40 -10 -71 -19 -31 -9 -66 -19 -78 -21 -11 -3 -31 -7 -43 -10 -13 -3 -36
-8 -53 -10 -44 -7 -89 -17 -99 -22 -24 -15 -380 -23 -486 -11 -63 7 -147 29
-183 49 -10 5 -22 7 -27 4 -4 -3 -10 -1 -12 4 -1 6 -15 12 -29 15 -15 2 -41
11 -58 20 -17 9 -31 14 -31 10 0 -4 -6 -2 -12 4 -7 6 -16 11 -20 12 -4 0 -25
8 -45 17 -21 9 -41 16 -45 15 -5 -1 -8 3 -8 9 0 6 -6 9 -14 6 -8 -3 -16 -2
-18 3 -2 5 -33 24 -70 42 -37 19 -64 29 -61 23 4 -5 -2 -3 -13 6 -19 17 -54
31 -65 26 -3 -1 -14 6 -24 16 -9 10 -24 16 -32 13 -8 -3 -12 -2 -9 3 3 5 -6
14 -22 20 -32 12 -85 43 -93 54 -3 5 -9 8 -12 8 -13 -1 -95 38 -101 48 -4 6
-16 11 -27 11 -11 0 -17 5 -14 10 3 6 0 10 -8 10 -8 0 -24 9 -37 20 -13 11
-28 20 -35 20 -7 0 -28 11 -48 24 -19 13 -38 21 -42 18 -3 -4 -10 -1 -14 6 -4
7 -18 14 -29 15 -12 1 -22 4 -22 8 0 4 -8 6 -17 4 -10 -1 -22 0 -28 4 -12 7
-132 11 -139 4z"/>
</g>
</svg>
