<svg width="636" height="414" viewBox="0 0 636 414" fill="none" xmlns="http://www.w3.org/2000/svg">
<g clip-path="url(#clip0)">
<path fill-rule="evenodd" clip-rule="evenodd" d="M107.406 412.911C46.9118 405.729 0 354.259 0 291.832C0 234.194 39.9908 185.897 93.7394 173.173C94.3405 77.4292 172.141 0 268.026 0C332.048 0 388.007 34.5188 418.307 85.9601C432.909 74.9064 451.103 68.3491 470.828 68.3491C518.931 68.3491 557.925 107.344 557.925 155.446C557.925 162.847 557.002 170.032 555.265 176.893C602.539 193.679 636.391 238.802 636.391 291.832C636.391 356.181 586.545 408.888 523.358 413.448V414H107.406V412.911Z" fill="#FFFCF9"/>
<path d="M164.76 228.06C164.76 234.08 169.52 238.84 175.54 238.84C181.56 238.84 186.32 234.08 186.32 228.06V198.66H226.08V228.06C226.08 234.08 230.84 238.84 236.86 238.84C242.88 238.84 247.64 234.08 247.64 228.06V149.94C247.64 143.92 242.88 139.16 236.86 139.16C230.84 139.16 226.08 143.92 226.08 149.94V178.78H186.32V149.94C186.32 143.92 181.56 139.16 175.54 139.16C169.52 139.16 164.76 143.92 164.76 149.94V228.06ZM284.567 239.4C294.927 239.4 302.067 235.62 307.247 229.88V230.02C307.247 234.5 311.307 238.84 317.467 238.84C323.207 238.84 327.827 234.36 327.827 228.62V194.46C327.827 184.38 325.307 176.12 319.707 170.52C314.387 165.2 305.987 162.12 294.367 162.12C284.427 162.12 277.147 163.52 270.427 166.04C267.067 167.3 264.687 170.52 264.687 174.3C264.687 179.2 268.607 182.98 273.507 182.98C274.487 182.98 275.327 182.84 276.587 182.42C280.647 181.16 285.407 180.32 291.287 180.32C301.927 180.32 307.387 185.22 307.387 194.04V195.3C302.067 193.48 296.607 192.22 289.047 192.22C271.267 192.22 258.807 199.78 258.807 216.16V216.44C258.807 231.28 270.427 239.4 284.567 239.4ZM291.007 224.7C284.147 224.7 279.387 221.34 279.387 215.6V215.32C279.387 208.6 284.987 204.96 294.087 204.96C299.267 204.96 304.027 206.08 307.667 207.76V211.54C307.667 219.24 300.947 224.7 291.007 224.7ZM375.959 239.68C388.279 239.68 396.259 235.76 402.559 230.02C404.379 228.34 405.639 226.1 405.639 223.3C405.639 218.26 401.719 214.2 396.679 214.2C394.159 214.2 392.059 215.32 390.939 216.16C386.879 219.38 382.539 221.34 376.939 221.34C365.319 221.34 357.899 212.1 357.899 200.62V200.34C357.899 189.28 365.459 179.9 376.099 179.9C381.699 179.9 385.619 181.72 389.399 184.66C390.659 185.64 392.759 186.76 395.559 186.76C400.879 186.76 405.219 182.56 405.219 177.24C405.219 173.6 403.259 171.08 401.859 169.96C395.559 164.64 387.579 161.56 376.239 161.56C353.279 161.56 336.899 179.2 336.899 200.62V200.9C336.899 222.32 353.419 239.68 375.959 239.68ZM414.919 228.2C414.919 234.08 419.679 238.84 425.559 238.84C431.439 238.84 436.199 234.08 436.199 228.2V216.02L444.739 208.32L463.359 233.94C465.879 237.44 468.399 238.84 472.599 238.84C477.919 238.84 482.539 234.92 482.539 229.18C482.539 226.8 481.699 224.84 479.879 222.32L459.859 195.3L476.659 180.88C479.599 178.08 481.559 175.28 481.559 171.64C481.559 166.74 477.919 162.12 472.179 162.12C468.399 162.12 465.879 163.94 462.799 166.88L436.199 192.08V145.6C436.199 139.72 431.439 134.96 425.559 134.96C419.679 134.96 414.919 139.72 414.919 145.6V228.2Z" fill="#207AEE"/>
<path d="M211.734 344.638C213.712 344.638 215.276 343.074 215.276 341.096C215.276 339.118 213.712 337.554 211.734 337.554H189.332V330.746C189.332 328.952 187.86 327.48 186.066 327.48C184.272 327.48 182.8 328.952 182.8 330.746V351.446C182.8 353.24 184.272 354.712 186.066 354.712C187.86 354.712 189.332 353.24 189.332 351.446V344.638H211.734ZM211.734 321.848C213.712 321.848 215.276 320.284 215.276 318.306C215.276 316.328 213.712 314.764 211.734 314.764H202.074V301.7H211.734C213.712 301.7 215.276 300.136 215.276 298.158C215.276 296.18 213.712 294.616 211.734 294.616H186.066C184.088 294.616 182.524 296.18 182.524 298.158C182.524 300.136 184.088 301.7 186.066 301.7H195.542V314.764H186.066C184.088 314.764 182.524 316.328 182.524 318.306C182.524 320.284 184.088 321.848 186.066 321.848H211.734ZM215 282.897V264.819C215 263.071 213.62 261.645 211.872 261.645C210.124 261.645 208.698 263.071 208.698 264.819V279.401H201.936V267.119C201.936 265.371 200.556 263.945 198.808 263.945C197.06 263.945 195.634 265.371 195.634 267.119V279.401H189.102V265.049C189.102 263.301 187.722 261.875 185.974 261.875C184.226 261.875 182.8 263.301 182.8 265.049V282.897C182.8 284.875 184.364 286.439 186.342 286.439H211.458C213.436 286.439 215 284.875 215 282.897Z" fill="#207AEE"/>
<path d="M234.76 346.06C234.76 352.08 239.52 356.84 245.54 356.84C251.56 356.84 256.32 352.08 256.32 346.06V318.06H294.12C299.58 318.06 303.92 313.72 303.92 308.26C303.92 302.8 299.58 298.46 294.12 298.46H256.32V277.6H300.42C305.88 277.6 310.22 273.26 310.22 267.8C310.22 262.34 305.88 258 300.42 258H245.54C239.52 258 234.76 262.76 234.76 268.78V346.06ZM353.564 357.68C376.944 357.68 394.304 340.18 394.304 318.62V318.34C394.304 296.78 377.084 279.56 353.844 279.56C330.464 279.56 313.104 297.06 313.104 318.62V318.9C313.104 340.46 330.324 357.68 353.564 357.68ZM353.844 339.34C342.084 339.34 334.104 329.68 334.104 318.62V318.34C334.104 307.28 341.384 297.9 353.564 297.9C365.324 297.9 373.304 307.56 373.304 318.62V318.9C373.304 329.96 366.024 339.34 353.844 339.34ZM437.713 378.68C452.273 378.68 463.053 375.6 470.053 368.6C476.353 362.3 479.573 352.5 479.573 339.06V290.76C479.573 284.88 474.813 280.12 468.933 280.12C463.053 280.12 458.293 284.88 458.293 290.62V290.76C452.553 284.46 445.693 279.56 434.073 279.56C416.853 279.56 400.753 292.16 400.753 314.56V314.84C400.753 337.1 416.573 349.84 434.073 349.84C445.413 349.84 452.273 345.22 458.573 337.66V341.3C458.573 354.74 451.713 361.74 437.153 361.74C429.173 361.74 422.593 360.06 416.433 357.26C415.453 356.84 414.333 356.56 412.933 356.56C408.173 356.56 404.253 360.48 404.253 365.24C404.253 369.16 406.633 372.1 410.273 373.5C419.093 377 427.773 378.68 437.713 378.68ZM440.233 332.2C429.873 332.2 422.033 325.2 422.033 314.84V314.56C422.033 304.34 429.873 297.2 440.233 297.2C450.593 297.2 458.573 304.34 458.573 314.56V314.84C458.573 325.06 450.593 332.2 440.233 332.2Z" fill="#207AEE"/>
</g>
<defs>
<clipPath id="clip0">
<rect width="636" height="414" fill="#207AEE"/>
</clipPath>
</defs>
</svg>
