<svg width="636" height="414" viewBox="0 0 636 414" fill="none"
  xmlns:inkscape="http://www.inkscape.org/namespaces/inkscape"
  inkscape:version="0.92.3 (2405546, 2018-03-11)"
  xmlns="http://www.w3.org/2000/svg">
<g clip-path="url(#clip0)">
<path
   style="clip-rule:evenodd;fill:#207aee;fill-rule:evenodd;stroke-width:0.59426534"
   d="m 348.25586,46.587891 c -56.98113,0 -103.21701,46.012932 -103.57422,102.910159 -31.94093,7.56143 -55.70508,36.2614 -55.70508,70.51367 0,37.0982 27.87852,67.68511 63.82813,71.95312 v 0.64844 h 247.18554 v -0.32812 c 37.54985,-2.70985 67.17188,-34.03306 67.17188,-72.27344 0,-31.51389 -20.11764,-58.3274 -48.21094,-68.30274 1.03224,-4.07725 1.58008,-8.34793 1.58008,-12.74609 0,-28.58535 -23.17187,-51.757812 -51.75781,-51.757812 -11.72189,0 -22.53348,3.896013 -31.21094,10.464844 C 419.55626,67.100143 386.30191,46.587891 348.25586,46.587891 Z m 93.61523,80.201169 c 3.49428,0 6.32227,2.82799 6.32227,6.32227 v 27.62305 l 15.80859,-14.97657 c 1.83034,-1.74714 3.3279,-2.82812 5.57422,-2.82812 3.41108,0 5.57422,2.74435 5.57422,5.65625 0,2.16312 -1.16497,3.82826 -2.91211,5.49218 l -9.98437,8.56836 11.89843,16.05664 c 1.08157,1.49755 1.58008,2.66378 1.58008,4.07813 0,3.41108 -2.74476,5.74023 -5.90625,5.74023 -2.49591,0 -3.99464,-0.8322 -5.49219,-2.9121 l -11.06445,-15.22461 -5.07617,4.57617 v 7.23828 c 0,3.49428 -2.82799,6.32226 -6.32227,6.32226 -3.49428,0 -6.32226,-2.82798 -6.32226,-6.32226 v -49.08789 c 0,-3.49428 2.82798,-6.32227 6.32226,-6.32227 z m -148.57812,2.4961 c 3.57748,0 6.40625,2.82877 6.40625,6.40625 v 17.13867 h 23.6289 v -17.13867 c 0,-3.57748 2.82878,-6.40625 6.40626,-6.40625 3.57745,0 6.40624,2.82877 6.40624,6.40625 v 46.42382 c 0,3.57748 -2.82879,6.40625 -6.40624,6.40625 -3.57748,0 -6.40625,-2.82877 -6.40626,-6.40625 v -17.4707 h -23.6289 v 17.4707 c 0,3.57748 -2.82877,6.40625 -6.40625,6.40625 -3.57748,0 -6.40625,-2.82877 -6.40625,-6.40625 v -46.42382 c 0,-3.57748 2.82877,-6.40625 6.40625,-6.40625 z M 412.5625,142.5957 c 6.73897,0 11.48074,1.8307 15.22461,4.99219 0.83197,0.66558 1.99609,2.16305 1.99609,4.32617 0,3.16149 -2.57874,5.65821 -5.74023,5.65821 -1.66394,0 -2.91138,-0.66567 -3.66016,-1.24805 -2.24632,-1.74714 -4.57641,-2.82813 -7.90429,-2.82813 -6.32299,0 -10.81446,5.57391 -10.81446,12.14649 v 0.16601 c 0,6.82217 4.40909,12.3125 11.31446,12.3125 3.32788,0 5.90759,-1.16459 8.32031,-3.07812 0.66558,-0.49918 1.91261,-1.16406 3.41015,-1.16406 2.9951,0 5.32422,2.4131 5.32422,5.4082 0,1.66394 -0.74851,2.99382 -1.83008,3.99219 -3.74385,3.41108 -8.48529,5.74218 -15.80664,5.74218 -13.39474,0 -23.21289,-10.31771 -23.21289,-23.04687 v -0.16602 c 0,-12.72916 9.73458,-23.21289 23.37891,-23.21289 z m -48.6543,0.33399 c 6.90537,0 11.89711,1.83069 15.0586,4.99219 3.32788,3.32786 4.82617,8.23636 4.82617,14.22656 v 20.29883 c 0,3.41108 -2.74517,6.07421 -6.15625,6.07421 -3.66068,0 -6.07422,-2.57987 -6.07422,-5.24218 v -0.082 c -3.07829,3.41108 -7.32193,5.65625 -13.47852,5.65625 -8.40291,0 -15.30664,-4.82564 -15.30664,-13.64454 V 175.043 c 0,-9.73407 7.40272,-14.22656 17.96875,-14.22656 4.49265,0 7.7389,0.74851 10.90039,1.83007 v -0.74804 c 0,-5.24142 -3.24537,-8.1543 -9.56836,-8.1543 -3.49426,0 -6.32361,0.49927 -8.73632,1.24805 -0.74878,0.24959 -1.2477,0.33398 -1.83008,0.33398 -2.9119,0 -5.24024,-2.2463 -5.24024,-5.1582 0,-2.24632 1.41343,-4.15943 3.41016,-4.9082 3.99346,-1.49755 8.31957,-2.33008 14.22656,-2.33008 z m -0.16601,25.45703 c -5.40782,0 -8.73633,2.16474 -8.73633,6.1582 v 0.16602 c 0,3.41108 2.82959,5.4082 6.90625,5.4082 5.907,0 9.90039,-3.24447 9.90039,-7.82031 v -2.24805 c -2.16313,-0.99836 -4.99202,-1.66406 -8.07031,-1.66406 z m -28.84961,31.52148 h 32.61328 c 3.24469,0 5.82422,2.57758 5.82422,5.82227 0,3.24469 -2.57953,5.82422 -5.82422,5.82422 h -26.20703 v 12.39648 h 22.46289 c 3.24469,0 5.82422,2.57953 5.82422,5.82422 0,3.24469 -2.57953,5.82422 -5.82422,5.82422 h -22.46289 v 16.63867 c 0,3.57748 -2.82877,6.40625 -6.40625,6.40625 -3.57748,0 -6.40625,-2.82877 -6.40625,-6.40625 v -45.92383 c 0,-3.57747 2.82877,-6.40625 6.40625,-6.40625 z m -20.00781,2.16602 c 1.03877,0 1.85937,0.84599 1.85937,1.88476 v 10.74414 c 0,1.17546 -0.93001,2.10547 -2.10547,2.10547 h -14.92578 c -1.17546,0 -2.10547,-0.93001 -2.10547,-2.10547 V 204.0957 c 0,-1.03877 0.84794,-1.88476 1.88672,-1.88476 1.03878,0 1.85938,0.84599 1.85938,1.88476 v 8.5293 h 3.88086 v -7.29883 c 0,-1.03877 0.84794,-1.88672 1.88671,-1.88672 1.03878,0 1.85938,0.84795 1.85938,1.88672 v 7.29883 h 4.01758 v -8.66602 c 0,-1.03877 0.84794,-1.88476 1.88672,-1.88476 z m 84.36914,10.64648 c 13.81072,0 24.04296,10.23257 24.04297,23.04492 v 0.16602 c 0,12.81236 -10.31507,23.21289 -24.20899,23.21289 -13.81073,0 -24.04492,-10.23451 -24.04492,-23.04687 v -0.16602 c 0,-12.81236 10.31701,-23.21094 24.21094,-23.21094 z m 47.67773,0 c 6.90536,0 10.9815,2.91043 14.39258,6.6543 v -0.082 c 0,-3.41108 2.82798,-6.24024 6.32226,-6.24024 3.49428,0 6.32422,2.82799 6.32422,6.32227 v 28.70312 c 0,7.98693 -1.91433,13.81082 -5.6582,17.55469 -4.15986,4.15986 -10.56625,5.99024 -19.21875,5.99024 -5.907,0 -11.06522,-0.9982 -16.30664,-3.07813 -2.16313,-0.83197 -3.57813,-2.57868 -3.57813,-4.9082 0,-2.8287 2.3295,-5.1582 5.15821,-5.1582 0.83197,0 1.4977,0.16642 2.08008,0.41601 3.66067,1.66394 7.57221,2.66211 12.31445,2.66211 8.6525,0 12.72851,-4.15956 12.72851,-12.14648 v -2.16407 c -3.74387,4.49265 -7.81962,7.23828 -14.55859,7.23829 -10.39964,0 -19.80078,-7.57049 -19.80078,-20.79883 v -0.16602 c 0,-13.31154 9.56753,-20.79883 19.80078,-20.79883 z m -147.38281,8.94727 h 15.2539 c 1.17546,0 2.10547,0.92806 2.10547,2.10351 0,1.17546 -0.93001,2.10547 -2.10547,2.10547 h -5.74023 v 7.76367 h 5.74023 c 1.17546,0 2.10547,0.93002 2.10547,2.10547 0,1.17546 -0.93001,2.10352 -2.10547,2.10352 h -15.2539 c -1.17546,0 -2.10547,-0.92806 -2.10547,-2.10352 0,-1.17545 0.93001,-2.10547 2.10547,-2.10547 h 5.63086 v -7.76367 h -5.63086 c -1.17546,0 -2.10547,-0.93001 -2.10547,-2.10547 0,-1.17545 0.93001,-2.10351 2.10547,-2.10351 z m 151.04297,1.53515 c -6.15659,0 -10.81641,4.24302 -10.81641,10.31641 v 0.16602 c 0,6.15659 4.65982,10.3164 10.81641,10.3164 6.15659,0 10.89843,-4.24301 10.89843,-10.3164 v -0.16602 c 0,-6.07339 -4.74184,-10.3164 -10.89843,-10.31641 z m -51.50391,0.41602 c -7.23815,0 -11.56445,5.57392 -11.56445,12.14648 v 0.16602 c 0,6.57258 4.74191,12.3125 11.73047,12.3125 7.23815,0 11.56445,-5.57391 11.56445,-12.14648 v -0.16602 c 0,-6.57257 -4.74191,-12.3125 -11.73047,-12.3125 z m -99.53906,17.57813 c 1.06611,0 1.9414,0.87529 1.9414,1.9414 v 4.04492 h 13.3125 c 1.17546,0 2.10547,0.93002 2.10547,2.10547 0,1.17546 -0.93001,2.10352 -2.10547,2.10352 h -13.3125 v 4.04687 c 0,1.06612 -0.87529,1.94141 -1.9414,1.94141 -1.06611,0 -1.94141,-0.87529 -1.94141,-1.94141 v -12.30078 c 0,-1.06611 0.8753,-1.9414 1.94141,-1.9414 z"
   transform="matrix(1.68275,0,0,1.68275,-318.00001,-78.394272)"
   id="path4591"
   inkscape:connector-curvature="0" />
</g>
<defs>
<clipPath id="clip0">
<rect width="636" height="414" fill="white"/>
</clipPath>
</defs>
</svg>
